<svg xmlns="http://www.w3.org/2000/svg" viewBox="0 0 512 512"><g fill="#f3f3f3"><path d="M36.65 126.93C110.17 84.95 183.7 42.99 257.22 1.01 330.34 43.7 403.48 86.37 476.6 129.09c-.43 84.67-.79 169.34-1.24 254.01-73.55 41.94-147.05 83.95-220.6 125.9-73.11-42.71-146.26-85.36-219.36-128.08.44-84.66.79-169.32 1.25-253.99M257.26 10.38c-1.09.53-2.19 1.05-3.26 1.61-69.63 39.74-139.3 79.4-208.86 119.25-1.35 14.21-.71 28.5-.92 42.75-.17 56-.29 111.99-.43 167.98-.59 11.53-.7 23.08-.4 34.62 67.69 39.24 135.22 78.78 202.8 118.22 2.86 1.51 5.4 3.76 8.54 4.71 3.69-1.31 6.88-3.67 10.31-5.53 67.35-38.33 134.64-76.77 201.88-115.29.67-8.19.96-16.42.79-24.64.14-43.68.25-87.37.38-131.05.18-23.67-.27-47.36.64-71.02-.16-5.62.24-11.24-.1-16.85.13-1.66-1.5-2.33-2.63-3.12-69.6-40.5-139.02-81.33-208.74-121.64z"/><path d="M249.03 27.04c2.2-1.19 4.39-2.78 6.97-2.94 2.32.14 4.31 1.49 6.29 2.56 64.83 37.81 129.67 75.64 194.44 113.56.53 5.59.05 11.2.11 16.8.06 20.65-.12 41.3-.03 61.96-1.03 19.67-.36 39.37-.58 59.06-.3 31.19.18 62.39-.49 93.57-65.42 37.72-131.19 74.87-196.7 112.45-3.84 2.68-7.73-1.22-11.12-2.89-63.82-36.6-127.87-72.8-191.62-109.53-.58-12.2-.29-24.45-.41-36.68-.07-42.66-.17-85.32-.21-127.99.13-22.27-1.06-44.53-.46-66.8 64.6-37.71 129.2-75.43 193.81-113.13m-4.64 82.41c-32.83 2.45-64.87 15.52-89.63 37.29-16.01 13.36-28.65 30.56-37.79 49.25-19.76 40.44-19.9 89.75-.36 130.31 9.05 18.74 21.61 35.99 37.58 49.42 11.31 10.37 24.56 18.38 38.51 24.67 41.85 19.16 92.54 18.06 133.36-3.29 15.07-7.02 28.1-17.58 40.17-28.87 15.22-16.1 27.71-35.05 34.95-56.07 10.58-29.18 11.62-61.68 3.16-91.53-6.24-22.4-17.85-43.25-33.39-60.53-5.19-6.5-11.84-11.58-18.05-17.03-30.11-24.51-69.85-36.63-108.51-33.62z"/></g><g fill="#fff"><path d="M257.26 10.38C326.98 50.69 396.4 91.52 466 132.02c1.13.79 2.76 1.46 2.63 3.12.34 5.61-.06 11.23.1 16.85-.91 23.66-.46 47.35-.64 71.02-.13 43.68-.24 87.37-.38 131.05.17 8.22-.12 16.45-.79 24.64-67.24 38.52-134.53 76.96-201.88 115.29-3.43 1.86-6.62 4.22-10.31 5.53-3.14-.95-5.68-3.2-8.54-4.71-67.58-39.44-135.11-78.98-202.8-118.22-.3-11.54-.19-23.09.4-34.62.14-55.99.26-111.98.43-167.98.21-14.25-.43-28.54.92-42.75C114.7 91.39 184.37 51.73 254 11.99c1.07-.56 2.17-1.08 3.26-1.61m-8.23 16.66c-64.61 37.7-129.21 75.42-193.81 113.13-.6 22.27.59 44.53.46 66.8.04 42.67.14 85.33.21 127.99.12 12.23-.17 24.48.41 36.68 63.75 36.73 127.8 72.93 191.62 109.53 3.39 1.67 7.28 5.57 11.12 2.89 65.51-37.58 131.28-74.73 196.7-112.45.67-31.18.19-62.38.49-93.57.22-19.69-.45-39.39.58-59.06-.09-20.66.09-41.31.03-61.96-.06-5.6.42-11.21-.11-16.8-64.77-37.92-129.61-75.75-194.44-113.56-1.98-1.07-3.97-2.42-6.29-2.56-2.58.16-4.77 1.75-6.97 2.94z"/><path d="M244.39 109.45c38.66-3.01 78.4 9.11 108.51 33.62 6.21 5.45 12.86 10.53 18.05 17.03 15.54 17.28 27.15 38.13 33.39 60.53 8.46 29.85 7.42 62.35-3.16 91.53-7.24 21.02-19.73 39.97-34.95 56.07-12.07 11.29-25.1 21.85-40.17 28.87-40.82 21.35-91.51 22.45-133.36 3.29-13.95-6.29-27.2-14.3-38.51-24.67-15.97-13.43-28.53-30.68-37.58-49.42-19.54-40.56-19.4-89.87.36-130.31 9.14-18.69 21.78-35.89 37.79-49.25 24.76-21.77 56.8-34.84 89.63-37.29m-1.12 70.78c-5.91 5.55-8.67 13.82-8.73 21.8.02 8.41.01 16.83.02 25.25-5.75.02-11.5-.01-17.25.02.04 9.54.03 19.08.01 28.63 5.75.41 11.51-.23 17.26.15-.08 28.19.02 56.38-.05 84.56 11.78.04 23.57.04 35.36.01-.11-28.2.01-56.4-.06-84.6 7.84-.17 15.7.17 23.53-.24 1.39-9.48 2.34-19.02 3.28-28.55-8.93.06-17.86.02-26.79.02.03-6.12-.05-12.25 0-18.37-.13-4.28 4.1-7.65 8.18-7.66 6.21-.12 12.43.03 18.65-.04-.01-9.74-.04-19.47.01-29.21-10.57-.01-21.15.02-31.72-.02-7.92-.15-15.9 2.85-21.7 8.25z"/></g><path fill="#244ab8" d="M243.27 180.23c5.8-5.4 13.78-8.4 21.7-8.25 10.57.04 21.15.01 31.72.02-.05 9.74-.02 19.47-.01 29.21-6.22.07-12.44-.08-18.65.04-4.08.01-8.31 3.38-8.18 7.66-.05 6.12.03 12.25 0 18.37 8.93 0 17.86.04 26.79-.02-.94 9.53-1.89 19.07-3.28 28.55-7.83.41-15.69.07-23.53.24.07 28.2-.05 56.4.06 84.6-11.79.03-23.58.03-35.36-.01.07-28.18-.03-56.37.05-84.56-5.75-.38-11.51.26-17.26-.15.02-9.55.03-19.09-.01-28.63 5.75-.03 11.5 0 17.25-.02-.01-8.42 0-16.84-.02-25.25.06-7.98 2.82-16.25 8.73-21.8z"/></svg>