<svg xmlns="http://www.w3.org/2000/svg" viewBox="0 0 512 512"><g fill="#244ab8"><path d="M0 0h512v512H0V0m144.52 27.69c-3.24.69-6.73 1.22-9.23 3.61-4.76 4.29-7.12 10.44-10.11 15.97-35.16 67.08-70.33 134.16-105.47 201.24-.85 2.42-1.41 4.94-1.84 7.47.17 7.99 5.32 14.47 8.6 21.42 32.78 62.57 65.58 125.13 98.38 187.69 2.87 5.34 5.19 11.1 9.36 15.63 4.29 4.44 11 4.97 16.84 4.9 70.65-.03 141.31-.03 211.96 0 4.33.26 8.65-.5 12.73-1.93 3.72-1.81 6.12-5.31 8.24-8.72 36.76-70.13 73.54-140.28 110.28-210.42.85-2.76 1.76-5.59 1.9-8.48-.68-3.94-1.6-7.93-3.83-11.32-34.4-65.6-68.77-131.22-103.16-196.81-3-5.56-5.39-11.63-9.92-16.18-3.2-3.17-7.89-3.83-12.17-4.35-73.05-.05-146.1.02-219.15-.03-1.15.01-2.29.11-3.41.31z"/><path d="M254.77 131.65c5.62-1.44 11.36-2.65 17.2-2.6 14.93.03 29.86-.02 44.79.03-.01 14.85-.03 29.7.01 44.56-9.26.06-18.53-.04-27.79.02-6.18-.11-12.71 4.84-12.65 11.34.01 9.27.04 18.54 0 27.81 13.49.04 26.98 0 40.47.02-1.96 14.39-2.77 28.93-5.38 43.24-11.7-.06-23.4-.11-35.09-.01.03 42.29.01 84.58.01 126.88-7.37.01-14.73 0-22.1 0-10.33-.01-20.66.02-30.98-.01.01-42.34.02-84.67-.01-127.01-8.67.2-17.33.05-26 .06 0-14.38.01-28.76 0-43.14 8.67-.03 17.34 0 26.01-.02.01-12.59.02-25.18-.01-37.77.04-10.14 2.97-20.52 9.22-28.6 5.52-7.28 13.71-12.04 22.3-14.8z"/></g><path fill="#d1d1d1" d="M144.52 27.69c1.12-.2 2.26-.3 3.41-.31 73.05.05 146.1-.02 219.15.03 4.28.52 8.97 1.18 12.17 4.35 4.53 4.55 6.92 10.62 9.92 16.18 34.39 65.59 68.76 131.21 103.16 196.81 2.23 3.39 3.15 7.38 3.83 11.32-.14 2.89-1.05 5.72-1.9 8.48-36.74 70.14-73.52 140.29-110.28 210.42-2.12 3.41-4.52 6.91-8.24 8.72-4.08 1.43-8.4 2.19-12.73 1.93-70.65-.03-141.31-.03-211.96 0-5.84.07-12.55-.46-16.84-4.9-4.17-4.53-6.49-10.29-9.36-15.63-32.8-62.56-65.6-125.12-98.38-187.69-3.28-6.95-8.43-13.43-8.6-21.42.43-2.53.99-5.05 1.84-7.47 35.14-67.08 70.31-134.16 105.47-201.24 2.99-5.53 5.35-11.68 10.11-15.97 2.5-2.39 5.99-2.92 9.23-3.61m.83 15.7c-36.76 69.67-73.14 139.54-109.79 209.28-.85 1.75-2.42 3.78-1 5.69 20.62 39.42 41.29 78.81 61.92 118.23 16.41 30.95 32.35 62.16 48.93 93.02 36.41.03 72.82.05 109.23-.02 38.01.04 76.03.02 114.04.02 37.02-70.33 73.79-140.79 110.75-211.14.81-1.21.94-2.7.03-3.89-36.99-70.35-73.74-140.84-110.77-211.17-38-.04-76-.02-114-.01-36.45-.06-72.9-.06-109.34-.01z"/><path fill="#eaeaea" d="M145.35 43.39c36.44-.05 72.89-.05 109.34.01-.13 1.86-.25 3.71-.29 5.58.03 24.99.04 49.99-.04 74.98.02 2.57.2 5.13.41 7.69-8.59 2.76-16.78 7.52-22.3 14.8-6.25 8.08-9.18 18.46-9.22 28.6.03 12.59.02 25.18.01 37.77-8.67.02-17.34-.01-26.01.02.01 14.38 0 28.76 0 43.14 8.67-.01 17.33.14 26-.06.03 42.34.02 84.67.01 127.01 10.32.03 20.65 0 30.98.01.55 28.88-.28 57.78.4 86.65-36.41.07-72.82.05-109.23.02-16.58-30.86-32.52-62.07-48.93-93.02-20.63-39.42-41.3-78.81-61.92-118.23-1.42-1.91.15-3.94 1-5.69 36.65-69.74 73.03-139.61 109.79-209.28z"/><path fill="#fff" d="M254.69 43.4c38-.01 76-.03 114 .01 37.03 70.33 73.78 140.82 110.77 211.17.91 1.19.78 2.68-.03 3.89-36.96 70.35-73.73 140.81-110.75 211.14-38.01 0-76.03.02-114.04-.02-.68-28.87.15-57.77-.4-86.65 7.37 0 14.73.01 22.1 0 0-42.3.02-84.59-.01-126.88 11.69-.1 23.39-.05 35.09.01 2.61-14.31 3.42-28.85 5.38-43.24-13.49-.02-26.98.02-40.47-.02.04-9.27.01-18.54 0-27.81-.06-6.5 6.47-11.45 12.65-11.34 9.26-.06 18.53.04 27.79-.02-.04-14.86-.02-29.71-.01-44.56-14.93-.05-29.86 0-44.79-.03-5.84-.05-11.58 1.16-17.2 2.6-.21-2.56-.39-5.12-.41-7.69.08-24.99.07-49.99.04-74.98.04-1.87.16-3.72.29-5.58z"/></svg>