<svg xmlns="http://www.w3.org/2000/svg" viewBox="0 0 512 512"><path fill="#69a9ff" d="M8.98 254.35C91.5 171.21 174.08 88.12 256.61 4.97c82.82 82.22 165.62 164.45 248.41 246.69l-1.34 1.38-.2.21C425.4 175.41 347.04 97.84 268.84 20.1c-4.24-4.14-8.31-8.46-12.72-12.42-.26 41.2-.07 82.42-.1 123.62-9.32 2.67-18.19 7.82-24.01 15.72-6.09 8.29-8.89 18.74-8.76 28.95.03 12.28.02 24.56.01 36.84-8.67.05-17.34-.02-26 .03.01 14.41-.05 28.81.03 43.22 8.66-.01 17.31-.28 25.97-.02.02 42.3.01 84.59 0 126.88 10.91.04 21.83.01 32.74.02.13 38.93-.26 77.88.2 116.8C173.67 418.06 91.4 336.13 8.98 254.35z"/><path fill="#b8d7ff" d="M256.12 7.68c4.41 3.96 8.48 8.28 12.72 12.42 78.2 77.74 156.56 155.31 234.64 233.15-1.67 1.74-3.37 3.46-5.08 5.16-68.11-.29-136.22-.04-204.33-.14-5.92-.23-12.4 1.37-17.73-1.96 11.69-.91 23.43.04 35.14-.41 2.45-14.25 3.47-28.69 5.22-43.03-13.45-.14-26.89.06-40.34-.09 0-9.28-.06-18.57 0-27.86-.05-6.48 6.43-11.35 12.58-11.24 9.26-.16 18.52.08 27.79-.06.04-14.84.03-29.68 0-44.52-14.57-.12-29.15.01-43.73-.07-5.73-.06-11.43.86-16.98 2.27.03-41.2-.16-82.42.1-123.62z"/><path fill="#fff" d="M256.02 131.3c5.55-1.41 11.25-2.33 16.98-2.27 14.58.08 29.16-.05 43.73.07.03 14.84.04 29.68 0 44.52-9.27.14-18.53-.1-27.79.06-6.15-.11-12.63 4.76-12.58 11.24-.06 9.29 0 18.58 0 27.86 13.45.15 26.89-.05 40.34.09-1.75 14.34-2.77 28.78-5.22 43.03-11.71.45-23.45-.5-35.14.41-.01 42.2.03 84.4-.02 126.6-6.77.07-13.55.01-20.32.03-10.91-.01-21.83.02-32.74-.02.01-42.29.02-84.58 0-126.88-8.66-.26-17.31.01-25.97.02-.08-14.41-.02-28.81-.03-43.22 8.66-.05 17.33.02 26-.03.01-12.28.02-24.56-.01-36.84-.13-10.21 2.67-20.66 8.76-28.95 5.82-7.9 14.69-13.05 24.01-15.72z"/><path fill="#737578" d="M503.48 253.25l.2-.21c.35.41 1.04 1.23 1.38 1.64-82.66 83.15-165.2 166.41-247.89 249.54-.45-.93-.91-1.85-1.36-2.76l.49-.27c1.03-.55 2.04-1.16 2.91-1.95 79.72-80.29 159.43-160.59 239.19-240.83 1.71-1.7 3.41-3.42 5.08-5.16z" opacity=".51"/><path fill="#adcbf4" d="M276.32 382.91c.05-42.2.01-84.4.02-126.6 5.33 3.33 11.81 1.73 17.73 1.96 68.11.1 136.22-.15 204.33.14-79.76 80.24-159.47 160.54-239.19 240.83-.87.79-1.88 1.4-2.91 1.95l-.1-1.45c-.46-38.92-.07-77.87-.2-116.8 6.77-.02 13.55.04 20.32-.03z"/></svg>