<svg xmlns="http://www.w3.org/2000/svg" viewBox="0 0 512 512"><g fill="#9c9c9c"><path d="M236.32 14.47c61.45-4.64 124.51 13.22 173.67 50.55 39.36 29.48 69.79 70.96 85.18 117.73 14.4 43.47 15.67 91.17 3.65 135.35-9.49 35.19-27.42 68.01-51.5 95.34-23.23 26.56-52.32 47.87-84.36 62.59-43.79 19.98-93.23 27.27-140.95 21.02-50.49-6.32-98.97-28.14-136.93-62.07-25.67-22.82-46.58-51.03-60.6-82.41-15.19-33.9-22.15-71.44-20.14-108.53 2.16-42.32 16.1-83.95 39.81-119.06 29.05-43.56 72.41-77.23 121.53-95.22 22.66-8.43 46.54-13.46 70.64-15.29m-.01 6c-36.77 2.63-72.97 13.46-104.99 31.78-40.38 22.77-74.18 57.28-95.51 98.49-32.36 61.1-34.38 137.16-5.63 200 12.17 27.03 29.63 51.6 50.82 72.3 33.23 32.43 75.81 55.08 121.22 64.7 26.87 5.59 54.63 6.92 81.91 3.9 37.18-3.93 73.4-16.59 105.02-36.53 32.9-20.53 60.79-49.06 80.37-82.54 19.7-33.37 30.72-71.8 31.4-110.57 1.22-42.91-10.05-86.04-32.16-122.84-28.14-47.59-73.3-84.6-125.1-103.71-34.1-12.89-71.06-17.53-107.35-14.98z"/><path d="M237.3 141.23c9.2-8.1 21.59-11.75 33.67-12.16 15.26-.02 30.52-.02 45.78 0 .01 14.85-.03 29.71.02 44.56-9.25.06-18.5-.03-27.75.03-6.17-.12-12.71 4.77-12.68 11.26-.01 9.3.02 18.6 0 27.9 13.48.03 26.97-.01 40.45.02-1.92 14.34-2.83 28.81-5.29 43.09-11.72.3-23.45-.3-35.17.17.03 42.28.01 84.55.01 126.83-17.69.02-35.38.01-53.08 0V256.04c-8.67-.16-17.34.16-26.01-.13v-43.09c8.68.02 17.35.01 26.03 0-.05-12.61.01-25.22-.04-37.82.04-12.46 4.59-25.36 14.06-33.77z"/></g><path fill="#fff" d="M236.31 20.47c36.29-2.55 73.25 2.09 107.35 14.98 51.8 19.11 96.96 56.12 125.1 103.71 22.11 36.8 33.38 79.93 32.16 122.84-.68 38.77-11.7 77.2-31.4 110.57-19.58 33.48-47.47 62.01-80.37 82.54-31.62 19.94-67.84 32.6-105.02 36.53-27.28 3.02-55.04 1.69-81.91-3.9-45.41-9.62-87.99-32.27-121.22-64.7-21.19-20.7-38.65-45.27-50.82-72.3-28.75-62.84-26.73-138.9 5.63-200 21.33-41.21 55.13-75.72 95.51-98.49 32.02-18.32 68.22-29.15 104.99-31.78m.99 120.76c-9.47 8.41-14.02 21.31-14.06 33.77.05 12.6-.01 25.21.04 37.82-8.68.01-17.35.02-26.03 0v43.09c8.67.29 17.34-.03 26.01.13v126.89c17.7.01 35.39.02 53.08 0 0-42.28.02-84.55-.01-126.83 11.72-.47 23.45.13 35.17-.17 2.46-14.28 3.37-28.75 5.29-43.09-13.48-.03-26.97.01-40.45-.02.02-9.3-.01-18.6 0-27.9-.03-6.49 6.51-11.38 12.68-11.26 9.25-.06 18.5.03 27.75-.03-.05-14.85-.01-29.71-.02-44.56-15.26-.02-30.52-.02-45.78 0-12.08.41-24.47 4.06-33.67 12.16z"/></svg>