<svg xmlns="http://www.w3.org/2000/svg" viewBox="0 0 512 512"><g fill="#69a9ff"><path d="M233.56 11.85c44.17-3.86 89.35 3.48 129.82 21.68 46.93 20.88 87.45 56.24 113.72 100.46 22.25 36.89 34.11 79.94 33.91 123.02.02 41.79-11.31 83.51-32.45 119.55-17.86 30.87-42.66 57.63-71.76 78.19-32.21 22.89-69.82 37.94-108.8 44.18-44.66 6.96-91.15 2.63-133.48-13.35-46.87-17.4-88.5-48.89-117.55-89.63-23.43-32.62-38.64-71.16-43.31-111.09-5.2-43.16 1.66-87.71 19.78-127.23 22.04-48.35 60.27-88.91 106.81-114.42 31.69-17.62 67.2-28.27 103.31-31.36m16.86 28.64c-50.71 1.1-100.94 19.59-139.89 52.16-27.43 22.7-49.33 52.16-62.63 85.22-13.39 32.79-18.09 69.03-13.78 104.18 4.15 34.1 16.94 67.07 36.64 95.2 17.57 25.09 40.46 46.43 66.67 62.29 43.47 26.62 96.05 37.55 146.59 31.45 43.48-5.02 85.44-22.91 118.98-51.06 27.18-22.66 48.9-51.94 62.1-84.81 18.91-46.2 20.37-99.24 4.04-146.41-9.02-26.46-23.39-51.05-41.89-72-23.46-26.7-53.45-47.6-86.56-60.52-28.63-11.25-59.54-16.55-90.27-15.7z"/><path d="M237.7 140.9c10.21-8.76 24.07-12.17 37.3-11.85 13.92.03 27.84-.01 41.76.02 0 14.85-.04 29.71.02 44.56-9.29.06-18.59-.01-27.88.02-5.88-.04-12 4.39-12.55 10.47-.04 9.56.03 19.13-.02 28.69 13.51.04 27.01 0 40.52.03-2.1 14.36-2.75 28.93-5.44 43.22-11.7 0-23.4-.17-35.09 0 .06 42.29.01 84.59.03 126.88-17.7 0-35.4.01-53.09-.01.02-42.29 0-84.58.01-126.87-8.68-.03-17.35-.05-26.03-.13.02-14.37.01-28.73 0-43.1 8.68-.01 17.35 0 26.03 0-.01-12.94.01-25.87-.02-38.8.29-12.3 4.95-24.98 14.45-33.13z"/></g><path d="M250.42 40.49c30.73-.85 61.64 4.45 90.27 15.7 33.11 12.92 63.1 33.82 86.56 60.52 18.5 20.95 32.87 45.54 41.89 72 16.33 47.17 14.87 100.21-4.04 146.41-13.2 32.87-34.92 62.15-62.1 84.81-33.54 28.15-75.5 46.04-118.98 51.06-50.54 6.1-103.12-4.83-146.59-31.45-26.21-15.86-49.1-37.2-66.67-62.29-19.7-28.13-32.49-61.1-36.64-95.2-4.31-35.15.39-71.39 13.78-104.18 13.3-33.06 35.2-62.52 62.63-85.22 38.95-32.57 89.18-51.06 139.89-52.16M237.7 140.9c-9.5 8.15-14.16 20.83-14.45 33.13.03 12.93.01 25.86.02 38.8-8.68 0-17.35-.01-26.03 0 .01 14.37.02 28.73 0 43.1 8.68.08 17.35.1 26.03.13-.01 42.29.01 84.58-.01 126.87 17.69.02 35.39.01 53.09.01-.02-42.29.03-84.59-.03-126.88 11.69-.17 23.39 0 35.09 0 2.69-14.29 3.34-28.86 5.44-43.22-13.51-.03-27.01.01-40.52-.03.05-9.56-.02-19.13.02-28.69.55-6.08 6.67-10.51 12.55-10.47 9.29-.03 18.59.04 27.88-.02-.06-14.85-.02-29.71-.02-44.56-13.92-.03-27.84.01-41.76-.02-13.23-.32-27.09 3.09-37.3 11.85z"/></svg>