<svg xmlns="http://www.w3.org/2000/svg" viewBox="0 0 512 512"><path fill="#fff" d="M195.11 48.64c60.87-16.91 128.7-7.65 182.3 25.96 32.2 20 59.58 48.21 77.39 81.75-3.74 3.88-9.24 5.17-13.79 7.83-21.2 11.75-43.41 21.57-64.61 33.29-15.99 8-32 15.96-47.89 24.14-4.38 2.07-8.39 5.8-13.43 5.86.53-4.88.88-9.79 1.73-14.64-13.49-.02-26.99.03-40.48-.02.04-9.29 0-18.58 0-27.87-.03-6.48 6.5-11.4 12.66-11.28 9.26-.05 18.52.04 27.78-.03-.05-14.85-.01-29.71-.01-44.56-15.26-.02-30.51-.01-45.76-.01-11.87.42-24.04 3.92-33.2 11.75-9.56 8.14-14.27 20.85-14.54 33.19 0 12.94.02 25.89 0 38.83-8.67 0-17.34-.01-26.01 0 0 14.37.01 28.73-.01 43.1 8.68.03 17.35.1 26.03.08 0 6.33-.01 12.66 0 18.99-16.2 9.3-33.32 16.91-49.89 25.53-19.39 10.54-39.32 20.04-59 30.01-10.72 6.2-22.04 11.26-33 17-7.56 3.44-14.68 7.8-22.39 10.91-16.3-29.45-25.56-62.8-26.34-96.47-1.02-36.47 7.77-73.15 25.19-105.2 28.3-52.91 79.47-92.56 137.27-108.14z"/><path fill="#244ab8" d="M237.8 140.81c9.16-7.83 21.33-11.33 33.2-11.75 15.25 0 30.5-.01 45.76.01 0 14.85-.04 29.71.01 44.56-9.26.07-18.52-.02-27.78.03-6.16-.12-12.69 4.8-12.66 11.28 0 9.29.04 18.58 0 27.87 13.49.05 26.99 0 40.48.02-.85 4.85-1.2 9.76-1.73 14.64-.94 9.57-2.01 19.13-3.66 28.61-11.7-.1-23.4-.12-35.1-.02.05 42.29.01 84.58.03 126.87-17.7.01-35.4.03-53.1-.01.04-35.97 0-71.95.02-107.92-.01-6.33 0-12.66 0-18.99-8.68.02-17.35-.05-26.03-.08.02-14.37.01-28.73.01-43.1 8.67-.01 17.34 0 26.01 0 .02-12.94 0-25.89 0-38.83.27-12.34 4.98-25.05 14.54-33.19z"/><path fill="#eaeaea" d="M454.8 156.35l.22-.22c9.78 18.89 17.55 38.98 21.45 59.95 9.24 46.08 2.18 95.18-19.55 136.84-16.72 32.52-42.04 60.44-72.32 80.85-35.43 23.98-77.79 37.5-120.54 38.69-47.99 1.75-96.5-11.95-136.19-39.05-28.35-19.19-52.23-45.02-68.88-74.96 7.71-3.11 14.83-7.47 22.39-10.91 10.96-5.74 22.28-10.8 33-17 19.68-9.97 39.61-19.47 59-30.01 16.57-8.62 33.69-16.23 49.89-25.53-.02 35.97.02 71.95-.02 107.92 17.7.04 35.4.02 53.1.01-.02-42.29.02-84.58-.03-126.87 11.7-.1 23.4-.08 35.1.02 1.65-9.48 2.72-19.04 3.66-28.61 5.04-.06 9.05-3.79 13.43-5.86 15.89-8.18 31.9-16.14 47.89-24.14 21.2-11.72 43.41-21.54 64.61-33.29 4.55-2.66 10.05-3.95 13.79-7.83z"/></svg>