<svg xmlns="http://www.w3.org/2000/svg" viewBox="0 0 512 512"><g fill="#1d7ac3"><path d="M0 0h512v512H0V0m42.01 42.01c-.02 142.66-.01 285.32 0 427.98 142.66.02 285.32.01 427.98 0 .02-142.66.01-285.32 0-427.98-142.66-.02-285.32-.01-427.98 0z"/><path d="M268.44 93.57c21.48-1.29 43.02-.32 64.53-.54.06 19.32.06 38.65.01 57.98-11.67 0-23.35-.31-35.01.04-7.12-1.04-14.05 3.87-16.38 10.39-1.25 12.81-.57 25.7-.56 38.55 17.05.01 34.09 0 51.15.03-.68 18.75-2.86 37.45-6.07 55.94-15.03.09-30.06 0-45.09.06-.07 54.32.02 108.64-.03 162.97-23 .03-45.99.04-68.98 0-.05-54.33.03-108.65-.02-162.97-11-.01-21.99-.03-32.98-.04-.04-18.32-.04-36.64.01-54.95 10.99-.01 21.99-.04 32.98-.05.11-16.61-.4-33.22.3-49.82.78-13.84 4.64-28.14 14.4-38.44 10.28-12.16 26.32-17.63 41.74-19.15z"/></g><path fill="#fff" d="M42.01 42.01c142.66-.01 285.32-.02 427.98 0 .01 142.66.02 285.32 0 427.98-142.66.01-285.32.02-427.98 0-.01-142.66-.02-285.32 0-427.98m226.43 51.56c-15.42 1.52-31.46 6.99-41.74 19.15-9.76 10.3-13.62 24.6-14.4 38.44-.7 16.6-.19 33.21-.3 49.82-10.99.01-21.99.04-32.98.05-.05 18.31-.05 36.63-.01 54.95 10.99.01 21.98.03 32.98.04.05 54.32-.03 108.64.02 162.97 22.99.04 45.98.03 68.98 0 .05-54.33-.04-108.65.03-162.97 15.03-.06 30.06.03 45.09-.06 3.21-18.49 5.39-37.19 6.07-55.94-17.06-.03-34.1-.02-51.15-.03-.01-12.85-.69-25.74.56-38.55 2.33-6.52 9.26-11.43 16.38-10.39 11.66-.35 23.34-.04 35.01-.04.05-19.33.05-38.66-.01-57.98-21.51.22-43.05-.75-64.53.54z"/></svg>