<svg xmlns="http://www.w3.org/2000/svg" viewBox="0 0 512 512"><g fill="#fff"><path d="M231.55 14.85c47.96-4.36 97.19 4.57 140.18 26.39 31.79 16 60.2 38.77 82.48 66.55 28.14 34.78 46.37 77.58 51.28 122.09 5.25 45.81-3.25 93.15-24.48 134.12-17.18 33.56-42.38 62.93-72.72 85.28-32.33 23.99-70.47 40-110.2 46.44-50.5 8.43-103.47 1.58-150.06-19.69-48.02-21.9-89.08-59.14-114.55-105.46-17.92-32.21-28.03-68.72-29.32-105.55-1.36-36.5 5.95-73.29 21.18-106.49 21.58-47.18 58.8-86.84 104.08-112.04 31.27-17.67 66.39-28.29 102.13-31.64m.03 9c-44.98 3.92-88.55 21.04-124.73 47.94-34.58 25.82-62.04 61.15-77.97 101.31-15.75 38.54-19.41 81.52-12.62 122.46 9.09 52.62 37.78 101.28 78.31 135.87 34.57 29.42 77.43 49.18 122.33 55.96 43.05 6.23 87.95 2.36 128.52-13.75 37.02-14.26 70.67-37.53 96.53-67.67 24.63-28.41 42.18-62.92 50.71-99.54 9.18-42.95 6.77-88.76-9.17-129.85-13.71-35.94-36.38-68.41-65.48-93.56-29.4-25.74-65.22-43.85-103.06-53.36-27.23-6.47-55.51-8.26-83.37-5.81z"/><path d="M237.27 141.28c9.19-8.15 21.61-11.79 33.7-12.22 15.26-.01 30.53-.01 45.79.01-.01 14.86-.03 29.71.01 44.57-9.3.06-18.59-.05-27.89.03-6.14-.08-12.58 4.83-12.55 11.28-.01 9.28.03 18.57 0 27.86 13.49.04 26.98 0 40.47.02-1.98 14.4-2.77 28.95-5.38 43.26-11.7-.09-23.39-.21-35.08-.04v4.02c.01 40.96 0 81.91.01 122.87-17.7 0-35.4.01-53.09-.01.02-40.95 0-81.9.01-122.85-.01-1.35-.01-2.7 0-4.05-8.67-.22-17.34.21-26-.02-.04-14.39-.01-28.78-.02-43.18 8.67-.01 17.34.01 26.01-.01.02-12.95 0-25.91.01-38.86.27-12.1 4.8-24.53 14-32.68z"/></g><path d="M231.58 23.85c27.86-2.45 56.14-.66 83.37 5.81 37.84 9.51 73.66 27.62 103.06 53.36 29.1 25.15 51.77 57.62 65.48 93.56 15.94 41.09 18.35 86.9 9.17 129.85-8.53 36.62-26.08 71.13-50.71 99.54-25.86 30.14-59.51 53.41-96.53 67.67-40.57 16.11-85.47 19.98-128.52 13.75-44.9-6.78-87.76-26.54-122.33-55.96-40.53-34.59-69.22-83.25-78.31-135.87-6.79-40.94-3.13-83.92 12.62-122.46 15.93-40.16 43.39-75.49 77.97-101.31 36.18-26.9 79.75-44.02 124.73-47.94m-86.06 45.72c-39.32 21.41-71.99 55.05-91.61 95.35-14.44 29.44-21.79 62.37-20.9 95.17 63.42.01 126.84.03 190.26-.01-.01 40.95.01 81.9-.01 122.85 17.69.02 35.39.01 53.09.01-.01-40.96 0-81.91-.01-122.87 67.22.05 134.43.02 201.65.02.9-33.03-6.54-66.2-21.22-95.79-24.95-51.04-70.97-90.9-124.48-109.61C271.65 33 201.9 38.32 145.52 69.57z"/><path fill="#676767" d="M145.52 69.57C201.9 38.32 271.65 33 332.29 54.69c53.51 18.71 99.53 58.57 124.48 109.61 14.68 29.59 22.12 62.76 21.22 95.79-67.22 0-134.43.03-201.65-.02v-4.02c11.69-.17 23.38-.05 35.08.04 2.61-14.31 3.4-28.86 5.38-43.26-13.49-.02-26.98.02-40.47-.02.03-9.29-.01-18.58 0-27.86-.03-6.45 6.41-11.36 12.55-11.28 9.3-.08 18.59.03 27.89-.03-.04-14.86-.02-29.71-.01-44.57-15.26-.02-30.53-.02-45.79-.01-12.09.43-24.51 4.07-33.7 12.22-9.2 8.15-13.73 20.58-14 32.68-.01 12.95.01 25.91-.01 38.86-8.67.02-17.34 0-26.01.01.01 14.4-.02 28.79.02 43.18 8.66.23 17.33-.2 26 .02-.01 1.35-.01 2.7 0 4.05-63.42.04-126.84.02-190.26.01-.89-32.8 6.46-65.73 20.9-95.17 19.62-40.3 52.29-73.94 91.61-95.35z"/></svg>