<svg xmlns="http://www.w3.org/2000/svg" width="512" height="512"><path fill="#203656" d="M492.668 442.957c0 34.17-27.702 61.872-61.873 61.872H81.052c-34.17 0-61.875-27.704-61.875-61.875V93.212c0-34.17 27.704-61.873 61.875-61.873h349.743c34.17 0 61.873 27.7 61.873 61.87v349.745z"/><path fill="#3B5998" d="M492.668 418.213c0 34.172-27.702 61.873-61.873 61.873H81.052c-34.17 0-61.875-27.7-61.875-61.873V68.468c0-34.17 27.704-61.872 61.875-61.872h349.743c34.17 0 61.873 27.7 61.873 61.872v349.745z"/><path fill="#28416D" d="M492.668 270.265l-164.36-164.36-144.768 149.66 89.427 89.427-46.634 37.74 97.354 97.356h107.107c34.172 0 61.873-27.7 61.873-61.873v-147.95z"/><path fill="#FFF" d="M277.508 382.73V255.563h42.684l6.39-49.555H277.51V174.37c0-14.35 3.986-24.128 24.556-24.128l26.244-.008v-44.327c-4.537-.61-20.112-1.957-38.24-1.957-37.836 0-63.736 23.1-63.736 65.512v36.546H183.54v49.555h42.793V382.73h51.175z"/></svg>