<svg xmlns="http://www.w3.org/2000/svg" viewBox="0 0 256 256"><g fill="#176bce"><path d="M22.44 10.43C32.09 3.43 44.13-.11 56.01.27c48.66 0 97.33 0 145.99-.01 11.11-.3 22.35 2.82 31.63 9C245.42 17 253.51 29.8 256 43.64v169.34c-2.4 13.47-10.15 25.91-21.42 33.72-7.38 5.28-16.2 8.25-25.16 9.3H49.44c-10.53-.76-20.83-4.69-29.03-11.37C8.26 234.98.83 219.56 1.16 204.01c.01-51.02.01-102.04 0-153.06.2-15.86 8.41-31.3 21.28-40.52m47.93 24.93C47.11 49.52 29.36 72.6 22.19 98.92c-3.73 13.13-4.65 26.95-3.36 40.51 1.29 12.54 4.81 24.9 10.47 36.17 2.99 6.38 6.81 12.38 11.09 17.97 8.61 11.39 19.55 21.03 31.89 28.2 33.52 20.02 77.88 20.04 111.41.02 11.97-6.9 22.49-16.22 31.07-27.03l-.03-.13c6.31-7.86 11.44-16.71 15.12-26.07 3.85-9.27 6.27-19.14 7.32-29.11 1.46-15.12.07-30.56-4.71-45-7.2-22.43-22.12-42.19-41.46-55.58-18.86-13.22-42-20.2-65.01-19.65-19.54.24-38.98 5.9-55.62 16.14z"/><path d="M126.25 75.24c8.74-4.76 19.07-3.65 28.6-2.83l.49.43c-.19 4.99-.18 9.98-.5 14.96.02.63.08 1.9.11 2.53-4.94.05-9.91-.31-14.83.12-2.84.18-5.11 2.72-5.26 5.51-.31 5.46-.06 10.94-.13 16.42 6.87-.08 13.76.2 20.62-.17-.16 6.44-.65 12.86-.88 19.29-6.58.03-13.17-.03-19.76.01.04 15.97.01 31.93.04 47.9-.04 1.66 0 3.31.04 4.97-6.76.01-13.51-.01-20.27.02.07-17.47-.07-34.94.12-52.41l-.3-.51c-4.6.12-9.21 0-13.81.1.12-6.42.08-12.83.04-19.25 4.59.09 9.19-.03 13.78.1.62-6.33-.03-12.93.32-19.35.79-7.32 4.95-14.4 11.58-17.84z"/></g><g fill="#fff"><path d="M70.37 35.36c16.64-10.24 36.08-15.9 55.62-16.14 23.01-.55 46.15 6.43 65.01 19.65 19.34 13.39 34.26 33.15 41.46 55.58 4.78 14.44 6.17 29.88 4.71 45-1.8-2.85-.89-6.32-1.09-9.48.16-6.03-.38-12.04-1.33-17.99-1.12-8.82-3.75-17.43-7.2-25.6-.68-1.81-3.06-1.2-4.55-1.45-17.99.18-35.98.04-53.97.12-3.9.02-7.81-.36-11.68.2-.27 1.87-.35 3.76-.55 5.64-.72-.99-1.37-2.02-1.96-3.09.32-4.98.31-9.97.5-14.96l-.49-.43c-9.53-.82-19.86-1.93-28.6 2.83-6.63 3.44-10.79 10.52-11.58 17.84-.35 6.42.3 13.02-.32 19.35-4.59-.13-9.19-.01-13.78-.1-.01-.31-.01-.94-.01-1.25 4.05-.31 8.12.13 12.16-.32.5-6.15.31-12.35.02-18.5-3.56-.5-7.16-.32-10.73-.3-20.67-.02-41.35.18-62.02 0-4.5.29-9.13-.53-13.55.44-1.55 2.18-1.89 4.95-2.65 7.46-2.16 8.89-4.32 18-3.79 27.21-.21 4.1 1.01 8.62-1.17 12.36-1.29-13.56-.37-27.38 3.36-40.51 7.17-26.32 24.92-49.4 48.18-63.56z"/><path d="M99.7 132.38l.83-.8c4.6-.1 9.21.02 13.81-.1l.3.51c-.19 17.47-.05 34.94-.12 52.41 6.76-.03 13.51-.01 20.27-.02l.16.71c-3.49 1.22-7.29.3-10.91.54-3.67-.24-7.87.97-10.94-1.65.52-6.98.01-13.98.06-20.96.08-9.94.14-19.91-.39-29.82-4.3-.97-8.99 1-13.07-.82z"/></g><path fill="#f9f9fa" d="M157.35 85.25c3.87-.56 7.78-.18 11.68-.2 17.99-.08 35.98.06 53.97-.12 1.49.25 3.87-.36 4.55 1.45 3.45 8.17 6.08 16.78 7.2 25.6-14.26.2-28.51-.03-42.77.11-11.56-.23-23.14.3-34.69-.31-.67.05-1.32.2-1.94.43-6.86.37-13.75.09-20.62.17.07-5.48-.18-10.96.13-16.42.15-2.79 2.42-5.33 5.26-5.51 4.92-.43 9.89-.07 14.83-.12-.03-.63-.09-1.9-.11-2.53.59 1.07 1.24 2.1 1.96 3.09.2-1.88.28-3.77.55-5.64z"/><path fill="#f6f7f8" d="M26.44 92.4c4.42-.97 9.05-.15 13.55-.44 20.67.18 41.35-.02 62.02 0 3.57-.02 7.17-.2 10.73.3.29 6.15.48 12.35-.02 18.5-4.04.45-8.11.01-12.16.32 0 .31 0 .94.01 1.25.04 6.42.08 12.83-.04 19.25l-.83.8c-.84-1.56-.88-3.37-1.24-5.06-4.78-.56-9.6-.19-14.39-.37-21.36.26-42.71-.08-64.07.12-.53-9.21 1.63-18.32 3.79-27.21.76-2.51 1.1-5.28 2.65-7.46z"/><path fill="#f1f1f2" d="M155.35 112.21c.62-.23 1.27-.38 1.94-.43 11.55.61 23.13.08 34.69.31 14.26-.14 28.51.09 42.77-.11.95 5.95 1.49 11.96 1.33 17.99.2 3.16-.71 6.63 1.09 9.48-1.05 9.97-3.47 19.84-7.32 29.11-.8-1.01-.99-2.08-.56-3.23 1.95-5.55 3.59-11.23 4.43-17.06-16.54-.77-33.14.03-49.71-.27-15.56.24-31.14-.28-46.68.25-.64 5.61.18 11.3-.98 16.86-1.06 4.71 1.02 9.99-1.6 14.3-.03-15.97 0-31.93-.04-47.9 6.59-.04 13.18.02 19.76-.01.23-6.43.72-12.85.88-19.29z"/><path fill="#edeeef" d="M20 127.07c21.36-.2 42.71.14 64.07-.12 4.79.18 9.61-.19 14.39.37.36 1.69.4 3.5 1.24 5.06 4.08 1.82 8.77-.15 13.07.82.53 9.91.47 19.88.39 29.82-27.39-.13-54.78.01-82.17-.08-1.61.01-3.22.07-4.81.26.32 4.31 4.49 8.04 3.12 12.4-5.66-11.27-9.18-23.63-10.47-36.17 2.18-3.74.96-8.26 1.17-12.36z"/><path fill="#e8e9eb" d="M137.33 148.25c15.54-.53 31.12-.01 46.68-.25 16.57.3 33.17-.5 49.71.27-.84 5.83-2.48 11.51-4.43 17.06-.43 1.15-.24 2.22.56 3.23-3.68 9.36-8.81 18.21-15.12 26.07-.09-.38-.28-1.14-.38-1.52 1.54-3.4 4.45-6.02 5.65-9.61-1.99.12-3.97.38-5.96.44-25.01.12-50.03-.09-75.04.08-1.43-.03-2.74.6-4.05 1.07l-.16-.71c-.04-1.66-.08-3.31-.04-4.97 2.62-4.31.54-9.59 1.6-14.3 1.16-5.56.34-11.25.98-16.86z"/><path fill="#e6e7e9" d="M26.18 163.2c1.59-.19 3.2-.25 4.81-.26 27.39.09 54.78-.05 82.17.08-.05 6.98.46 13.98-.06 20.96-19.34.15-38.69-.04-58.03.06-6.34-.17-12.7.36-19.01-.5 1.03 3.12 3.41 5.49 4.86 8.37-.13.42-.4 1.25-.53 1.66-4.28-5.59-8.1-11.59-11.09-17.97 1.37-4.36-2.8-8.09-3.12-12.4z"/><path fill="#e0e1e4" d="M36.06 183.54c6.31.86 12.67.33 19.01.5 19.34-.1 38.69.09 58.03-.06 3.07 2.62 7.27 1.41 10.94 1.65 3.62-.24 7.42.68 10.91-.54 1.31-.47 2.62-1.1 4.05-1.07 25.01-.17 50.03.04 75.04-.08 1.99-.06 3.97-.32 5.96-.44-1.2 3.59-4.11 6.21-5.65 9.61.1.38.29 1.14.38 1.52l.03.13c-8.58 10.81-19.1 20.13-31.07 27.03-.06-.44-.19-1.3-.25-1.73 2.09-1.72 5-2.44 6.46-4.88-6.97-.63-13.97-.01-20.96-.24-34.26.12-68.54-.23-102.8.18.83 3.34 7.3 2.84 6.14 6.65-12.34-7.17-23.28-16.81-31.89-28.2.13-.41.4-1.24.53-1.66-1.45-2.88-3.83-5.25-4.86-8.37z"/><path fill="#dadcde" d="M66.14 215.12c34.26-.41 68.54-.06 102.8-.18 6.99.23 13.99-.39 20.96.24-1.46 2.44-4.37 3.16-6.46 4.88.06.43.19 1.29.25 1.73-33.53 20.02-77.89 20-111.41-.02 1.16-3.81-5.31-3.31-6.14-6.65z"/></svg>